<?xml version="1.0" standalone="no"?><svg xmlns="http://www.w3.org/2000/svg" viewBox="0 0 1440 320"><path fill="#6C63FF" fill-opacity="1" d="M0,64L34.3,80C68.6,96,137,128,206,133.3C274.3,139,343,117,411,96C480,75,549,53,617,69.3C685.7,85,754,139,823,154.7C891.4,171,960,149,1029,154.7C1097.1,160,1166,192,1234,208C1302.9,224,1371,224,1406,224L1440,224L1440,0L1405.7,0C1371.4,0,1303,0,1234,0C1165.7,0,1097,0,1029,0C960,0,891,0,823,0C754.3,0,686,0,617,0C548.6,0,480,0,411,0C342.9,0,274,0,206,0C137.1,0,69,0,34,0L0,0Z"></path></svg>